<svg xmlns="http://www.w3.org/2000/svg" viewBox="0 0 64 64" role="img" aria-label="Ravi Kumar Mandal">
  <defs>
    <linearGradient id="bg" x1="10%" y1="0%" x2="100%" y2="100%">
      <stop offset="0%" stop-color="#11172a" />
      <stop offset="100%" stop-color="#0b0f1e" />
    </linearGradient>
    <linearGradient id="stroke" x1="0%" y1="0%" x2="100%" y2="100%">
      <stop offset="0%" stop-color="#9dd7ff" />
      <stop offset="100%" stop-color="#6e7cff" />
    </linearGradient>
  </defs>
  <rect width="64" height="64" rx="18" fill="url(#bg)" />
  <rect x="4" y="4" width="56" height="56" rx="14" fill="none" stroke="rgba(255,255,255,0.12)" />
  <path
    d="M20 46V18h11.8c3.6 0 6.3.8 8.1 2.5 1.9 1.6 2.8 3.9 2.8 6.8 0 2.1-.5 3.9-1.6 5.4-1.1 1.4-2.6 2.5-4.6 3.1L44 46h-6.9l-6.4-9.2H26V46zm6-14h5.1c1.8 0 3.2-.4 4.1-1.1.9-.8 1.4-1.9 1.4-3.4 0-1.5-.4-2.6-1.3-3.4-.9-.8-2.2-1.2-4-1.2H26z"
    fill="url(#stroke)"
  />
</svg>
